HIERARCHY
ROOT root
{
	OFFSET	0	13.1	24.9
	CHANNELS 6  Xposition Yposition Zposition Xrotation Yrotation Zrotation
	JOINT spine_1
	{
		OFFSET	0	9.99999	0
		CHANNELS 3  Xrotation Yrotation Zrotation
		JOINT spine_2
		{
			OFFSET	0	112	-10
			CHANNELS 3  Xrotation Yrotation Zrotation
			JOINT spine_3
			{
				OFFSET	0	206.5	19.3
				CHANNELS 3  Xrotation Yrotation Zrotation
				JOINT spine_4
				{
					OFFSET	0	110.4	14.6
					CHANNELS 3  Xrotation Yrotation Zrotation
					JOINT neck_1
					{
						OFFSET	0	71.8	-50.3
						CHANNELS 3  Xrotation Yrotation Zrotation
						JOINT neck_2
						{
							OFFSET	0	86.2	-25.8
							CHANNELS 3  Xrotation Yrotation Zrotation
							JOINT head_ee
							{
								OFFSET	0	179.8	-8.7
								CHANNELS 3  Xrotation Yrotation Zrotation
								End Site
								{
									OFFSET	1	0	0
								}
							}
						}
					}
					JOINT left_clavicle
					{
						OFFSET	-43.2	22.4	-70.8
						CHANNELS 3  Xrotation Yrotation Zrotation
						JOINT left_shoulder
						{
							OFFSET	-93.9	-5.79999	48.7
							CHANNELS 3  Xrotation Yrotation Zrotation
							JOINT left_elbow
							{
								OFFSET	-291.4	-30.8	15.2
								CHANNELS 3  Xrotation Yrotation Zrotation
								JOINT left_lowarm_twist
								{
									OFFSET	-110.7	-3.89999	13.6
									CHANNELS 3  Xrotation Yrotation Zrotation
									JOINT left_hand
									{
										OFFSET	-110.7	-3.89999	13.6
										CHANNELS 3  Xrotation Yrotation Zrotation
										JOINT left_ee
										{
											OFFSET	-80.8	-5.10001	12.1
											CHANNELS 3  Xrotation Yrotation Zrotation
											End Site
											{
												OFFSET	1	0	0
											}
										}
									}
								}
							}
						}
					}
					JOINT right_clavicle
					{
						OFFSET	43.2	22.4	-70.8
						CHANNELS 3  Xrotation Yrotation Zrotation
						JOINT right_shoulder
						{
							OFFSET	93.9	-5.79999	48.7
							CHANNELS 3  Xrotation Yrotation Zrotation
							JOINT right_elbow
							{
								OFFSET	291.4	-30.8	15.2
								CHANNELS 3  Xrotation Yrotation Zrotation
								JOINT right_lowarm_twist
								{
									OFFSET	110.7	-3.89999	13.6
									CHANNELS 3  Xrotation Yrotation Zrotation
									JOINT right_hand
									{
										OFFSET	110.7	-3.89999	13.6
										CHANNELS 3  Xrotation Yrotation Zrotation
										JOINT right_ee
										{
											OFFSET	80.8	-5.10001	12.1
											CHANNELS 3  Xrotation Yrotation Zrotation
											End Site
											{
												OFFSET	1	0	0
											}
										}
									}
								}
							}
						}
					}
				}
			}
		}
	}
	JOINT left_hip
	{
		OFFSET	-82.8	-127.5	0.300001
		CHANNELS 3  Xrotation Yrotation Zrotation
		JOINT left_knee
		{
			OFFSET	-28.2	-396.7	2.2
			CHANNELS 3  Xrotation Yrotation Zrotation
			JOINT left_ankle
			{
				OFFSET	-11.7	-411.3	35.4
				CHANNELS 3  Xrotation Yrotation Zrotation
				JOINT left_toes
				{
					OFFSET	0	-60	-88.6
					CHANNELS 3  Xrotation Yrotation Zrotation
					JOINT left_foot_ee
					{
						OFFSET	-22.5	-16.5	-42.2
						CHANNELS 3  Xrotation Yrotation Zrotation
						End Site
						{
							OFFSET	1	0	0
						}
					}
				}
			}
		}
	}
	JOINT right_hip
	{
		OFFSET	82.8	-127.5	0.300001
		CHANNELS 3  Xrotation Yrotation Zrotation
		JOINT right_knee
		{
			OFFSET	28.2	-396.7	2.2
			CHANNELS 3  Xrotation Yrotation Zrotation
			JOINT right_ankle
			{
				OFFSET	11.7	-411.3	35.4
				CHANNELS 3  Xrotation Yrotation Zrotation
				JOINT right_toes
				{
					OFFSET	0	-60	-88.6
					CHANNELS 3  Xrotation Yrotation Zrotation
					JOINT right_foot_ee
					{
						OFFSET	22.5	-16.5	-42.2
						CHANNELS 3  Xrotation Yrotation Zrotation
						End Site
						{
							OFFSET	1	0	0
						}
					}
				}
			}
		}
	}
}
MOTION
Frames: 6
Frame Time: 0.02
2529.68559992 751.643 -1455.74555518 173.023473794 75.0622525267 -175.135966929 0.83248 0.271473 0.919761 0.832926 0.212399 0.935169 0.836579 0.025116 0.958655 0.83534 0.176196 0.94266 -12.2275 5.00357 -2.76229 -12.2751 11.26 -1.2201 -0.0 0.0 -0.0 5.7075 19.437 10.8146 -16.9256 -11.1002 62.229 0.192058 -5.43489 0.00911581 82.8608 -4.17226 -8.76274 -4.60454 28.8002 -13.7067 -0.0 0.0 -0.0 9.60358 -8.68575 -18.2474 3.55351 2.11475 -69.0799 1.50994 36.7933 -0.502219 38.1956 0.258752 4.7832 1.31574 -28.8709 -18.6866 0.0 0.0 0.0 7.48861 -8.16756 -2.86371 -39.5447 -0.438054 5.93445 27.6458 27.3634 -3.88746 -37.6932 0.0 0.0 -0.0 0.0 -0.0 6.62944 -4.81753 -0.585628 -0.599344 -0.0242146 -0.0887882 18.029 8.02666 2.57462 -22.3301 0.0 0.0 0.0 0.0 0.0 
2524.56295305 749.727 -1444.59120679 173.650284039 72.9431080202 -175.801033821 0.918246 0.254746 0.91791 0.918694 0.195823 0.932258 0.922049 0.0108509 0.952539 0.920819 0.161144 0.938874 -13.6149 4.35571 -3.46024 -13.6579 10.4335 -1.94887 -0.0 0.0 -0.0 5.44976 19.3495 10.4249 -17.6103 -10.3902 62.368 0.203249 -5.74951 0.0102064 82.9249 -4.17982 -8.76597 -5.10731 29.2446 -16.2079 -0.0 0.0 -0.0 9.64624 -6.73532 -18.5012 5.11099 3.2079 -69.5477 1.75928 41.0684 -0.65901 39.2956 0.313133 4.91294 1.51329 -28.9325 -19.8442 0.0 0.0 0.0 10.3734 -8.41263 -3.72284 -39.2891 -0.422163 5.89852 28.8712 26.6528 -4.01653 -37.755 0.0 0.0 -0.0 0.0 -0.0 5.71629 -3.47136 -0.0764221 0.567192 0.0237708 0.083793 16.356 9.7912 2.37533 -22.8597 0.0 0.0 0.0 0.0 0.0 
2518.74047289 750.188 -1430.66332896 174.879062062 71.0275333892 -177.050314892 0.990032 0.240971 0.930431 0.990496 0.181279 0.943877 0.993639 -0.00447583 0.961116 0.99238 0.147364 0.949763 -14.1187 4.48005 -3.07746 -14.1752 10.4203 -1.49864 -0.0 0.0 -0.0 5.13609 20.5514 9.91069 -18.1606 -9.94679 62.4668 0.214003 -6.05153 0.011312 82.7694 -4.16149 -8.75811 -5.22676 29.0846 -17.0037 -0.0 0.0 -0.0 9.40798 -6.09673 -18.0911 6.24875 4.17093 -69.7353 1.85803 42.6226 -0.724891 39.9777 0.348103 4.99285 1.63169 -28.8893 -20.5227 0.0 0.0 0.0 12.8187 -8.47789 -4.01581 -37.7567 -0.330253 5.68166 29.7398 26.7197 -4.12095 -37.5123 0.0 0.0 -0.0 0.0 -0.0 4.3114 -2.37888 0.254382 2.23773 0.0985965 0.329196 16.4991 11.5557 2.41865 -23.0552 0.0 0.0 0.0 0.0 0.0 
2508.65868034 752.756 -1425.45821813 178.16798091 70.9623920392 179.815129882 1.04336 0.080604 0.956006 1.04386 0.0196103 0.959197 1.04429 -0.165246 0.945061 1.04305 -0.0139242 0.959296 -13.8159 4.20584 -3.07967 -13.8607 9.90763 -1.61532 -0.0 0.0 -0.0 4.95767 21.4183 9.62081 -18.6559 -8.92087 62.597 0.221804 -6.27039 0.0121491 83.2622 -4.21968 -8.78286 -5.62907 28.7921 -19.5422 -0.0 0.0 -0.0 9.03526 -4.7397 -17.4578 6.97018 5.43201 -69.671 2.351 49.3417 -1.08001 41.0207 0.403417 5.11425 1.94853 -28.3792 -22.2729 0.0 0.0 0.0 13.226 -9.07743 -4.16199 -23.5622 0.236362 3.58267 29.5998 27.6177 -4.12908 -37.876 0.0 0.0 -0.0 0.0 -0.0 4.24073 -1.62759 0.57512 2.80565 0.125663 0.412123 15.6681 12.5949 2.32056 -23.9057 0.0 0.0 0.0 0.0 0.0 
2483.05147277 752.557 -1400.72040825 -179.687419923 69.9416405633 178.042160573 1.16899 -0.0115521 0.83506 1.16938 -0.0646639 0.832633 1.16848 -0.221864 0.805133 1.16759 -0.0919281 0.830065 -12.9722 2.94977 -4.89722 -12.9508 8.68481 -3.80669 -0.0 0.0 -0.0 4.80454 22.72 9.3617 -19.5332 -8.075 62.4796 0.195802 -5.5402 0.00947395 83.3998 -4.23596 -8.78968 -6.25167 29.2445 -22.8291 -0.0 0.0 -0.0 8.66074 -6.38556 -16.6364 6.05943 6.54281 -70.4399 2.81751 54.369 -1.44726 42.0226 0.458623 5.2299 2.27016 -28.0358 -24.1387 0.0 0.0 0.0 10.6236 -9.42699 -3.60195 -12.0567 0.305713 1.82163 23.843 27.0556 -3.40585 -36.8202 0.0 0.0 -0.0 0.0 -0.0 3.77369 -0.190952 1.14792 -1.02069 -0.0406797 -0.151354 19.3096 14.2083 2.83967 -22.9313 0.0 0.0 0.0 0.0 0.0 
2483.55047835 752.557 -1398.58190155 -179.693072301 69.5559034657 178.048185346 1.16899 -0.0115521 0.83506 1.16938 -0.0646639 0.832633 1.16848 -0.221864 0.805133 1.16759 -0.0919281 0.830065 -12.9722 2.94977 -4.89722 -12.9508 8.68481 -3.80669 -0.0 0.0 -0.0 4.80454 22.72 9.3617 -19.5332 -8.075 62.4796 0.195802 -5.5402 0.00947395 83.3998 -4.23596 -8.78968 -6.25167 29.2445 -22.8291 -0.0 0.0 -0.0 8.66074 -6.38556 -16.6364 6.05943 6.54281 -70.4399 2.81751 54.369 -1.44726 42.0226 0.458623 5.2299 2.27016 -28.0358 -24.1387 0.0 0.0 0.0 10.6236 -9.42699 -3.60195 -12.0567 0.305713 1.82163 23.843 27.0556 -3.40585 -36.8202 0.0 0.0 -0.0 0.0 -0.0 3.77369 -0.190952 1.14792 -1.02069 -0.0406797 -0.151354 19.3096 14.2083 2.83967 -22.9313 0.0 0.0 0.0 0.0 0.0 
